<svg xmlns="http://www.w3.org/2000/svg" viewBox="0 0 1080 1080"><g fill="#fff" stroke-width="0"><path d="M237.1 63.9c-1.8 4.9-3.4 9.5-3.5 10.2-.2.8-.8 2.7-1.5 4.4-1.5 3.6-10.7 28.6-16.3 44.1l-4 11.2 8.7 42.3 8.7 42.4 22.3 45 22.3 45 20.8 27c11.4 14.8 28.9 37.8 38.9 51.1 10 13.2 21.3 28.1 25 33 3.8 4.9 11.8 15.4 17.8 23.4 29.7 39 39.2 51.2 40.3 51.7.7.2 6.5-2.5 13.1-6 6.5-3.5 19.1-10.1 28.1-14.6l16.2-8.2v-18.4c0-10.7-.4-18.6-1-19-.5-.3-1.7-3.1-2.6-6.3-.9-3.1-3-9.3-4.7-13.7-1.6-4.4-5.1-14.5-7.8-22.5-6.6-19.9-7.8-23.4-11.1-32-1.6-4.2-3.1-8.8-3.3-10.2-.3-1.5-1.4-4.8-2.5-7.3-1.1-2.6-2-5.3-2-6.1s-1.1-4.2-2.5-7.6c-1.4-3.5-2.7-7.2-2.9-8.4-.2-1.1-1.9-5.7-3.6-10-1.8-4.3-3.4-8.9-3.5-10-.2-1.2-.7-3-1.3-4-.5-1.1-2.9-7.5-5.2-14.4-2.4-6.9-5.2-14.5-6.3-17s-1.9-5-1.8-5.7c.1-.6-.8-3.5-2-6.5-2.7-6.7-8.6-24.6-10.5-31.7-.8-3-3-7.3-4.8-9.5-1.8-2.3-6.7-9.1-10.8-15.1-4.1-6.1-17.7-25.6-30.3-43.5s-24.9-35.4-27.4-39-4.8-6.7-5.1-7-2.8-3.7-5.4-7.7c-3.7-5.5-5.7-7.5-8.7-8.7-2.2-.9-4.6-1.6-5.3-1.6-.8 0-2.1-.6-2.8-1.3s-1.7-1.5-2.3-1.7c-3.2-1-18.1-7.8-26.7-12.1-1-.5-2.5-.9-3.3-.9s-1.5-.4-1.5-1c0-.5-2.3-1.6-5.1-2.4-2.8-.9-7.6-3-10.6-4.7-5.4-3.1-5.6-3.2-7.1-1.3-1.3 1.8-1.4 1.8-.7-.4.3-1.2.3-2.2-.2-2.2s-2.3 4-4.2 8.9M473 463.5c0 .8-.2 1.5-.4 1.5s-.6-.7-1-1.5c-.3-.8-.1-1.5.4-1.5.6 0 1 .7 1 1.5M817.2 70.6c-21 10.3-31.1 15.8-30.6 16.6.4.6.3.8-.4.4-.6-.3-3.4 2.7-6.6 7.1-3.1 4.3-6 8.3-6.5 8.9-.5.7-14.3 20.5-30.7 44-16.3 23.6-32.8 47.3-36.6 52.7-5.3 7.5-7.6 11.9-9.9 19-3.4 10.4-4.2 13.3-4.3 16.4-.1 1.1-.4 1.9-.7 1.7-.8-.5-2.6 3.5-6.4 14.6-6.6 19.1-12.4 35.7-32.9 93.7-5.9 16.6-10.9 31-11.1 32-.3 1-1.8 5.6-3.6 10.3-1.7 4.7-3.2 9.2-3.5 10-.2.8-2.9 8.5-6.1 17l-5.8 15.5-.3 17.1c-.3 13.2 0 17.3 1 18.1 3.2 2.6 56.2 29.4 57.5 29.1.9-.2 5.2-5 9.6-10.8 4.5-5.8 14.1-18.4 21.6-28 7.4-9.6 15.6-20.2 18.1-23.5s9.8-12.8 16-21c6.3-8.3 16.7-22 23.2-30.5s19.6-25.9 29.2-38.5c9.5-12.7 19.6-25.9 22.3-29.5 2.8-3.6 6.7-10.3 8.7-15 2.1-4.7 4.5-9.9 5.3-11.5.9-1.7 8.5-17.4 17-35 14-29 15.6-32.8 16.9-40.8.8-4.9 1.2-9.2.9-9.7s-.1-1.1.5-1.5c.6-.3 1-1.8 1-3.3-.1-1.5.4-5.2.9-8.2 2.6-14.7 4.1-25.9 3.5-27.4-.3-.9-.2-1.6.3-1.6 1.5 0 4.7-24 3.9-28.3-.4-2.1-1-3.7-1.4-3.7s-.8-.8-.9-1.8c-.2-1.9-19.9-52.3-23.2-59.3-1.2-2.5-2.3-5.6-2.6-6.9-.2-1.3-.8-2.7-1.2-3-.5-.4-14.9 6.2-32.1 14.6M517 457.1c-16.2 8.8-29.9 16.4-30.4 16.9-.4.4 1.7 8.2 4.7 17.2 12 35.1 19.1 62.7 22.7 87.3 4.9 34.2 10.3 86.2 12.5 121 1 15.1-1.2 13.5 18.9 13.5h17.3l.1-4.3c0-5.1.6-11.5 3.2-31.7 1.1-8.5 2.2-18.9 2.4-23 1-15.9 1.6-21 6.1-49.2.9-5.3 1.5-10 1.3-10.5-.6-2.4 5.8-35.9 8.7-45.3 1.2-4.1 4.2-14 6.5-22 2.4-8 5.1-16.8 6.1-19.5 8.6-24.1 11-31.8 10.6-32.9-.3-.7-3.4-2.9-6.9-4.8-37.4-20.8-52.2-28.8-53.2-28.8-.6 0-14.4 7.3-30.6 16.1m-73.6 37.1c-17 8.8-31.7 16.7-32.6 17.7-4.4 4.1-43.9 71.9-45 77.1-.2.8-.6 1.7-.9 2-1.7 1.3-11.1 20.6-14.8 30-9.1 23.8-14.1 38.5-13.6 39.7.2.8.1 1.2-.4.9-.6-.4-23.2 61.3-27.8 75.8-.5 1.6-.3 1.8 1.8 1.2 1.3-.4 5-1.2 8.2-1.8 15.2-3 44.5 6.2 69 21.6 4.9 3.1 9.3 5.4 9.8 5 .5-.3.8-.1.7.5-.3 1 17.9 16.1 19.5 16.1 1 0 8.6-8.1 8.7-9.2 0-.3-1.7-1.2-3.7-1.9-2.1-.6-5.9-2.2-8.5-3.6-2.7-1.3-4.8-2.1-4.8-1.8 0 1.8-17.5-15-21.2-20.3-1.6-2.4-3.4-3.9-4-3.6-.7.4-.8.2-.4-.5.4-.6-.1-2.6-1.2-4.4-6.8-11.2-11.8-28-13.3-44.7-.9-9.8-.8-12.3.6-17l1.6-5.5-3.9-13.8c-2.2-7.5-3.7-13.7-3.5-13.7.3 0 1.7 1.1 3.1 2.4 1.5 1.3 6.4 5.6 11 9.6l8.2 7.1 5.6-1.2c3-.7 6.1-1.7 6.9-2.3 1-.8 1.8-5.2 2.7-14.4.7-7.2 1.5-13.2 1.8-13.1.3 0 3.4 6.1 6.9 13.5 3.6 7.3 7.2 13.6 8 13.8 7.1 1.9 12.4 2.7 13 2 .5-.5 2.1-5.1 3.6-10.2 1.6-5 3.1-9.2 3.5-9.2.3 0 2.5 6 4.8 13.4 4 12.7 4.4 13.4 8.3 16.1 7.7 5.4 18.1 17.6 22.6 26.6 6 12 8.4 21.2 9 35.2.5 9.7.8 11.7 2 11.3 1.8-.7 26.8-17.8 30.1-20.6 2.2-1.8 2.3-2.5 1.8-7.7-.3-3.2-.6-6.9-.6-8.3-.1-1.4-1.2-15.3-2.6-31-5-57.1-11.6-105-17.5-128-4.1-15.7-9.7-34.7-10.8-36.5-.3-.6-.6-1.5-.7-2.1-.4-2.7-3.7-13.1-4.7-14.9-.6-1.1-1.2-2.2-1.2-2.5-.2-2-2.9-10.1-3.5-10.5-.3-.2-14.6 6.8-31.6 15.7m-1 77.8c10.4 2.6 20.4 8.1 28.6 15.8 3.8 3.4 7 5.9 7.2 5.5.3-.5.3-.3.2.4-.2.6.6 2.3 1.7 3.7s3.7 5.5 5.8 9c2.1 3.6 4.2 6.2 4.6 5.8.5-.4.5-.2.1.5s0 2.9.9 4.9c.9 2.1 2.4 7.2 3.5 11.5s2.3 8.5 2.7 9.5c.4 1.1.2 1.5-.6 1.3-.7-.3-1.3-.9-1.3-1.4-.1-1.8-10.8-14.9-19.1-23.4-28.9-29.6-60.3-38.2-85.7-23.4-2.5 1.5-5 3.4-5.7 4.2-.6.9-1.4 1.3-1.8.9-.9-.9 5.6-10.6 9.8-14.7 2-1.9 3.3-3.9 3-4.4-.3-.6-.1-.7.4-.4.6.4 3.1-.4 5.5-1.8 10.2-5.7 26.2-7.1 40.2-3.5M399 653c0 .5-.5 1-1.1 1-.5 0-.7-.5-.4-1 .3-.6.8-1 1.1-1 .2 0 .4.4.4 1m85.7 73.7c-.3 1-.5.2-.5-1.7s.2-2.7.5-1.8c.2 1 .2 2.6 0 3.5m-173.6 8.6c-1 .9-1.1.8-.5-.6.3-1 .9-1.5 1.2-1.2s0 1.1-.7 1.8m174.4 1.6c.3.5.1 1.2-.5 1.6-.5.3-1-.1-1-.9 0-1.8.6-2.1 1.5-.7M424 772c0 .5-.5 1-1.1 1-.5 0-.7-.5-.4-1 .3-.6.8-1 1.1-1 .2 0 .4.4.4 1m194.5-292.2c-3.9 10-21.6 65-21.9 68.2-.1.9-.5 2-.8 2.5-.8 1.3-2.6 8.1-3.3 12.5-.3 1.9-1 5.9-1.6 8.7-.6 2.9-.8 5.7-.5 6.2.4.5.1 1.3-.5 1.6-.6.4-.8 1.7-.5 3 .3 1.2.3 2.5-.1 2.9-.4.3-.8 1.6-.9 2.9-.5 4.5-1.2 9.4-2.8 17.7-.8 4.7-1.5 9.6-1.5 11-.1 3.4-.6 7.2-1.4 9-.3.8-.6 2.6-.6 4 .1 3-.6 10.3-1.9 22-.6 4.7-1.1 11.2-1.2 14.5s-.6 6.5-1.2 7.2-.8 2.2-.5 3.3.1 2.3-.5 2.6c-.6.4-.8 2.5-.4 5 .3 2.4.1 4.6-.4 4.9-.6.3-.9 2-.8 3.8s-.2 6.6-.6 10.7c-1.6 15.5-2.6 13.4 10.2 22.5 10.5 7.6 24 16 21.6 13.6-.6-.7-.7-3.1-.2-6.9.5-3.1 1-7.7 1.2-10.2 1-11.3 8.9-30.5 16.8-40.8 4.4-5.6 13.5-14.2 15.3-14.2 2.2-.1 4.8-3 5.1-5.8.2-1.6 1.3-5.4 2.5-8.3 1.1-3 2.2-6.5 2.4-7.9s1.1-4.2 2-6.4c1.7-4.1 3.4-3.9 3.8.5.2 1.3 1 4.6 2 7.4.9 2.7 1.8 6.1 2 7.5.4 2.8.6 2.9 6.2 1.3 2.2-.7 5.1-1.3 6.5-1.5 2-.2 3.5-2.1 7.3-8.7 2.6-4.6 4.7-8.7 4.7-9.1s1-2.6 2.3-4.9l2.3-4.1 1.4 9.8c.8 5.3 1.5 11 1.6 12.7.2 5.2.3 5.5 2.7 5.5 1.2 0 4.2.6 6.7 1.4 2.7.8 4.9 1 5.5.4 3.2-2.8 7.8-6.6 10.6-8.8 1.8-1.4 5-4 7.1-5.9 4-3.5 5.7-3.7 3.9-.4-.5 1.1-2.6 7.4-4.5 14-3.4 11.5-3.5 12.2-2.1 15.6 1.7 4.1 1.9 11.8.5 22.7-3.3 25.6-13.6 46.4-30 61.1-3.9 3.5-7.3 6.2-7.4 5.9-.2-.3-1.2.3-2.2 1.2-1.7 1.5-10.7 5.8-11.9 5.7-1.6-.1-6.5 1.4-6.5 2 0 .4 2.4 2.8 5.4 5.4l5.4 4.6 2.4-2.2c1.4-1.2 4.5-3.8 6.9-5.7s4.6-3.8 4.7-4.2c.2-.4.8-.8 1.4-.8s2.4-1.1 4.2-2.6c4.9-4 12.5-8.6 21.1-12.8 4.4-2.1 9.6-4.7 11.5-5.6 3.8-1.9 20.2-7 28.8-9 7.9-1.8 18.9-2 23.5-.4 2.2.8 4.2 1.2 4.5.9.2-.2-.2-1.9-1-3.7-2-4.4-3.5-8.7-4.2-12.1-.4-1.7-1.1-2.5-1.8-2.1s-.8.3-.4-.5c.8-1.3-1.3-9.2-5.4-20.1-1.6-4.1-6.8-18.8-11.5-32.5-14-40.2-20-55.4-28.1-71.7-8-16-18.8-36.1-23.4-43.8-1.5-2.5-7.3-12.3-13-21.7-5.6-9.5-11.4-18.1-12.8-19.1-3.9-2.7-49-26.5-59.4-31.3-3.4-1.6-3.7-1.6-4.3-.1m58.3 94.8c12 2.4 21.5 7.6 28.1 15.3 5.4 6.5 5.6 9 .4 5.4-4.2-2.9-9.7-5.2-13.4-5.7-1.9-.3-3.4-.5-3.4-.6 0-.6-19.6-.6-20 0-.2.4-1.6.5-3 .2-1.4-.2-2.5 0-2.5.7 0 .5-.7.8-1.5.5-.8-.4-1.5-.1-1.5.6s-.7 1-1.6.6c-.8-.3-3.8.6-6.6 2s-5.9 2.7-7 2.9c-8.7 1.7-43.2 30.7-46.8 39.4-1.1 2.7-4 5.1-4 3.3 0-.4 1.4-5 3-10.1 3.4-10.4 8.2-21 11.4-25 1.2-1.4 3.2-4.2 4.5-6.1 3-4.4 12.6-12.4 20.6-17.1 7.3-4.3 9.1-5 13-5.5 1.7-.2 4.4-.8 6-1.3 4.8-1.5 15.9-1.2 24.3.5"/><path d="M402 674c-3 .5-8.4 1.9-12 3.2l-6.5 2.3.1 9.5c.1 7.2.7 11.8 2.9 19.3 1.6 5.5 3.5 10.5 4.2 11.3.8.8 1.2 1.4.8 1.4-.3 0 1.1 3.3 3.2 7.2 5.5 10.5 16.7 21.7 26.4 26.2 4.1 2 10.5 4 14.3 4.6 8.2 1.3 12.8.2 25.6-6.2l8.5-4.3-.1-13c0-11.8-.3-13.8-3-21.5-6.8-19.2-20.7-33.2-38.1-38.3-6.7-2-19.3-2.8-26.3-1.7m263.4 1c-17.2 4.5-30.7 15.5-38.3 31.2-2.3 4.6-4.2 9.7-4.3 11.4-.1 1.6-.4 3.3-.7 3.9-.7 1.2-.8 2.3-1.4 15.8l-.5 10.8 11.2 5.6c10.4 5.3 11.6 5.7 18.1 5.6 4.1 0 8.8-.7 11.5-1.7 2.5-.9 5.3-1.9 6.2-2.1 2.9-.7 11.2-5.6 15.9-9.6 5.5-4.6 13.7-16.2 17.4-24.5 4.1-9.2 6.5-19.9 7-31.6l.5-10.8-2.8-.6c-1.5-.3-3.8-1-5.1-1.5-4.5-1.9-16.2-3.9-21.9-3.8-3.1 0-8.9.9-12.8 1.9m-145.9 55.8c-24.9 18.2-33.4 23.2-68 39.3-13.7 6.3-16.8 8.2-21.6 13.1-6.5 6.4-6.2 5.5-10.9 33.3-4.3 25.7-5.5 42.1-4.2 60l1.1 15 4.5 4.1c6.4 5.9 20.9 13.1 32.4 16.1 8 2.1 12.1 2.5 23.2 2.6 12.7 0 14.1-.2 23.2-3.3 11.9-4 23.7-11.1 32.9-19.7l6.9-6.5v-59.3l-12-11c-6.7-6.1-14.3-13.5-16.9-16.5l-4.9-5.6 4.9-5.4c2.8-3 6.6-7.4 8.6-9.8l3.5-4.2h44.3l3 4.1c1.7 2.2 5.6 6.6 8.9 9.7l5.8 5.6-17.1 16.4-17.1 16.3.1 29.9.1 29.9 6.1 5.8c20.3 19.4 46.2 27.5 72.6 22.9 10.6-1.9 23.1-6.2 30-10.3 2.5-1.5 5.4-3.1 6.4-3.5.9-.4 1.7-1.2 1.7-1.8 0-.5.6-1 1.3-1 .8 0 2.3-1 3.4-2.3 1.7-1.8 2.3-4.1 2.9-12.2 1.4-17.7.9-41.5-1.2-54.5-.3-1.9-.7-4.6-.8-6-.2-1.4-.6-3.3-1-4.3-.5-.9-.6-2.3-.3-3.1s.3-1.7 0-2c-.4-.3-.8-3-.9-5.8-.2-2.9-.7-5.4-1.3-5.6-.5-.2-.7-1-.5-1.7.3-.8.2-2-.2-2.7-.5-.7-.7-2.4-.5-3.7.2-1.8-1.3-4-6.1-8.8-5.1-5.3-8.2-7.4-16.8-11.4-5.8-2.8-12.1-5.9-14.1-6.9-2-1.1-3.9-1.7-4.3-1.3-.3.3-.6.1-.6-.5s-1-1.4-2.2-1.7c-7.6-2.2-30.7-16.1-50.5-30.2l-10.1-7.3h-35.8zm-202.2 18.3c-4.6.9-12 4.8-14.7 7.7-1.5 1.7-1.4 2.3.8 8.8 3.7 11.1 6.7 17.4 7.9 16.7.6-.4.7-.1.3.6-.5.7.8 4.9 3 9.7 4.1 9.2 4.8 9.7 12.4 7.1 3.4-1.2 4-.9 16 5.4 48.2 25.4 61.2 32.1 61.6 31.6.3-.3 1.4-6.5 2.5-13.8 1-7.4 2.6-17.2 3.5-21.9l1.6-8.5-5.9-5.4c-18.9-17.4-48-32.9-70.6-37.5-8.3-1.7-11.9-1.8-18.4-.5m439.7.4c-10.3 2.2-22.6 6.7-35 13-11.2 5.6-20.2 11.1-20.8 12.7-.2.4-.8.8-1.3.8-1.3 0-15.7 11-18.7 14.2l-2.2 2.4 2.1 11.5c1.1 6.3 2.6 16.2 3.3 22.1 1.1 9.9 2.6 15.4 2.6 9.7 0-1.7.3-2 .9-1.1 1.2 1.9 1.6 1.9 3.7.1 2.4-2.1 8.6-5.4 9.7-5.1.4.1.7-.3.7-.9 0-.5.4-.8.9-.4.5.3 1.3 0 1.6-.6.4-.6 3.5-2.4 6.9-4 3.3-1.6 7.5-3.7 9.1-4.6 3.4-1.9 4.5-2.4 13.7-6.9 3.6-1.9 6.9-3.8 7.3-4.4.3-.5 1.5-1 2.6-1 1 0 1.9-.5 1.9-1.2 0-.6.3-.8.7-.5.7.8 11.4-4.9 12.5-6.6.4-.7 1.1-.7 2.1.1.7.7 1.6 1 1.9.7.2-.3 2.6.1 5.1.9 3.4 1 4.9 1.1 5.5.2 2.1-2.8 11.5-24.5 14.4-33.2l3.3-9.6-3-2.4c-8.2-6.6-18.9-8.6-31.5-5.9m15.7 50.1c-.3.3-1.2.4-1.9.1-.8-.3-.5-.6.6-.6 1.1-.1 1.7.2 1.3.5m-457.2 13c-6.6 1.4-29.2 6.1-50.3 10.4-21 4.4-39.8 8-41.7 8s-16.6-2.9-32.8-6.5-30.6-6.5-32.1-6.5c-1.4 0-15.9 4.7-32.1 10.5S96.6 839 96.2 839c-2.4 0-3 2.4-1.5 6.6 1.3 3.8 1.8 4.4 3.7 3.8 1.1-.3 15.2-5.3 31.1-10.9l29-10.3 7.8 1.8c4.3 1 9.9 2.1 12.5 2.4s7.2 1.3 10.2 2.1 6.7 1.5 8.2 1.5 2.9.4 3.2.9 1.6.8 2.9.8c1.4 0 4.9.9 7.8 1.9 6.3 2.2 20.1 2.5 23.7.5 1.3-.7 4.7-1.5 7.5-1.7 2.8-.3 5.4-1 5.8-1.6s1.2-.8 1.8-.4 3 .2 5.3-.5c5.3-1.5 12.7-3 15.1-3 .9 0 1.7-.5 1.7-1 0-.6.4-.8.9-.5s11.6-1.6 24.7-4.3c13.2-2.7 25.4-5.1 27.2-5.5 3.1-.5 3.5-.2 10.6 8.7l7.3 9.2 30.4 11.8c16.7 6.4 30.7 11.7 31.2 11.7.4 0 .7-2.9.7-6.5 0-3.9-.4-6.5-1.1-6.5-.5 0-.7.5-.3 1.2s.3.8-.5.4c-.6-.4-.9-1.1-.6-1.6s-8.1-5.4-18.7-10.9c-10.6-5.6-26.9-14.1-36.3-19.1-9.3-5-17.6-9.2-18.5-9.4-.8-.2-6.9.7-13.5 2m430.2 5.9c-8.9 4.6-23.4 12.2-32.2 17s-18.6 10.1-21.7 11.7l-5.8 3v12.6l3.3-.8c1.8-.4 6.9-2.3 11.4-4.3 4.4-2.1 8.6-3.7 9.3-3.7s4.7-1.5 8.9-3.4c9.6-4.2 17.4-7.1 18.4-6.8.4.1.7-.3.7-.9 0-.5.4-.8.9-.4.5.3 1.2.2 1.5-.3.2-.4 2.7-1.4 5.5-2.2 4.7-1.2 5.4-1.9 11.2-10.3 5.9-8.5 6.3-8.9 9.3-8.3 1.7.3 5 .8 7.3 1.1s8.8 1.6 14.5 2.9c10.3 2.4 14.6 3.3 20.3 4.2 3.7.5 18.7 3.6 37 7.6 7.7 1.7 14.7 3.2 15.5 3.3s2.5.5 3.7.9c1.5.5 9.4-.9 22-3.8 10.9-2.5 25.7-5.8 32.8-7.4l13-2.8 6.5 2.4c12.3 4.5 28.5 10.3 37.5 13.3 5 1.7 10.9 4 13.3 5.1s4.4 1.9 4.6 1.7c.1-.2 1-2.3 1.9-4.6l1.7-4.3-3.7-1.5c-2-.9-4.4-1.3-5.2-1-.9.3-1.2.3-.8-.1.7-.8-6.6-4.4-8.9-4.4-.8 0-2.2-.4-3.2-1-4-2.2-26.3-9.1-27.3-8.4-.8.4-.9.3-.5-.4.4-.8 0-1.2-1.1-1.2-1 0-3.3-.9-5-2-2.9-1.7-6.7-3-9.8-3.2-.5-.1-4.6.9-9 2.1s-9.3 2.3-10.8 2.3c-1.6.1-3.1.8-3.4 1.5-.4.9-.8 1.1-1.2.5q-.6-1.05-5.4 0c-2.6.5-4.5 1.3-4.3 1.6.2.4-1 .8-2.7.8-3.2.2-9.8 1.1-10.7 1.5-.3.1-.9.3-1.5.4-.5.2-1.2.4-1.5.5s-1.4.3-2.5.4c-1.1.2-4.5.8-7.6 1.5-5 1-6.6.9-13.3-.8-4.2-1.1-8.3-1.8-9.1-1.5-.8.4-1.5.1-1.5-.6 0-.6-.4-.9-.9-.5-.5.3-5.8-.6-11.8-1.9-10.9-2.4-21.6-4.6-35.3-7.3-4.1-.8-14.4-2.9-22.8-4.7l-15.4-3.3z"/><path d="M338.5 857.5c-3.3 1.9-5.9 4-5.7 4.6.1.6-.2.7-.8.4-.6-.4-5 1.5-9.8 4.3-4.8 2.7-19.3 10.9-32.2 18.2s-39 22.3-58 33.3c-19 11.1-37.2 21.6-40.5 23.5l-6 3.4-10.9-1.2c-6-.6-11.1-.9-11.4-.6-.2.3-1.2.1-2.1-.3-.9-.5-5.9-1.2-11.1-1.5s-12.4-.9-16-1.3-8.5-.7-11-.8h-4.5l-.3 4.7c-.3 5.4-.6 5.2 10.3 6.2 3.3.4 17.9 1.7 32.4 3.1l26.5 2.5 6.5-3.7c3.7-2 17.2-9.8 30.1-17.3 40.9-23.8 77.9-45 112.5-64.3 5-2.8 9.7-5 10.5-5 1.5.1 34.7 12.4 49.3 18.2 4.3 1.7 8.2 3.1 8.7 3.1 1.5 0 1.2-9.6-.2-10.8-1.5-1.2-57.6-22.2-59.2-22.2-.6 0-3.8 1.6-7.1 3.5m-218 89.5c.3.5.1 1-.4 1-.6 0-1.1-.5-1.1-1 0-.6.2-1 .4-1 .3 0 .8.4 1.1 1m617.2-90.4c-2.6 1.4-5.2 2.2-5.7 1.9-.6-.3-1-.1-1 .4 0 .6-.9 1.1-2 1.1s-7.5 2.3-14.2 5.1c-6.8 2.8-13.6 5.4-15.3 5.9-1.6.4-5.6 1.8-8.9 3l-5.8 2.2.6 4.2c.4 2.2.8 4.7.8 5.3.2 1.9 1.3 1.6 9.2-2.1 3.9-1.8 8.9-3.9 11.1-4.6 2.2-.6 6.3-2.2 9-3.5q7.95-3.6 23.1-8.7l6-2 4 2.7c2.1 1.5 6.4 3.8 9.4 5.2 3 1.3 6.4 3.2 7.5 4.1s3.1 2.3 4.5 3.1 6.8 3.9 11.9 6.9c5.2 3 11.8 6.7 14.5 8.2 2.8 1.5 11.4 6.5 19.1 11s16 9.3 18.5 10.7c2.5 1.3 6.8 3.7 9.5 5.3 2.8 1.6 5.6 2.8 6.3 2.5s1-.1.7.5c-.3.5 3.2 3.1 7.7 5.7 4.6 2.6 9 5.2 9.9 5.8.9.5 4.7 2.7 8.5 4.8s8.7 4.9 10.9 6.2c2.2 1.4 4.6 2.3 5.3 2s1.1-.1.8.3c-.3.5 1.4 2 3.6 3.5 3.6 2.3 4.8 2.6 9.7 2.1 3.1-.2 8.1-.7 11.1-.9 10.8-.9 15.7-1.4 32.8-3.4 9.5-1.2 18.3-2.1 19.5-2.2 2.1 0 2.1-.1.2-.9s-1.9-.9-.1-.9c1.4-.1 1.7-.6 1.2-2.4-.3-1.2-.6-2.9-.6-3.8 0-1.8-2.2-1.8-16.8 0-4.8.6-11.6 1.3-15.2 1.6s-12.2 1.1-19.1 1.9-13.7 1.3-15.1 1.2c-1.5-.2-4.8-1.9-7.5-3.8-2.6-2-5.8-3.9-7-4.2-1.3-.4-2.3-1.1-2.3-1.5 0-.8-4.5-3.2-6.9-3.7-.8-.1-1.7-.7-2-1.1-.9-1.4-8.5-5.8-9.3-5.5-.5.1-.8-.1-.8-.6 0-.4-2.1-1.9-4.7-3.2-2.7-1.4-5-2.8-5.3-3.1-.3-.4-5-3.2-10.5-6.3s-10.7-6.1-11.5-6.6c-.8-.6-3.1-1.8-5-2.8-1.9-.9-3.7-2-4-2.3-1.5-1.8-15.4-8.8-16.3-8.2-.7.3-.9.2-.4-.2.7-.8-.8-1.8-14.8-9.8-22.4-12.7-26.5-14.8-27.7-14.1-.7.4-.8.3-.4-.5.4-.6 0-1.4-1.1-1.8-1-.4-3-1.5-4.5-2.6s-3.1-1.6-3.9-1.2c-.7.5-1 .4-.6-.2s-1.2-2.1-3.6-3.4c-2.3-1.2-5.3-2.8-6.7-3.5-3.4-1.9-4.7-1.7-10.3 1.2m-50 21.6c-.3.8-.6.5-.6-.6-.1-1.1.2-1.7.5-1.3.3.3.4 1.2.1 1.9m266 71.4c-.3.3-1.2.4-1.9.1-.8-.3-.5-.6.6-.6 1.1-.1 1.7.2 1.3.5"/><path d="M375 889.6c.8 1 6.5 7.7 12.5 14.9 6.1 7.1 13.3 15.7 16 18.9 2.8 3.3 12.7 15 22 26.1 9.4 11 24.6 29.2 33.9 40.3l16.9 20.2h69.6l69.7-.1 15-17.7c8.2-9.7 14.8-18 14.6-18.4-.1-.5.2-.8.7-.8.8 0 9.1-9.2 16-17.8 2.7-3.4 7.5-8.9 11.4-13.2 1.3-1.4 5.7-6.5 9.8-11.5 11.2-13.6 11.3-13.7 12.5-14.9.5-.6 4.7-5.5 9.3-10.9 6.6-7.9 8.1-10.2 7.5-12-.6-1.9-.5-2 .8-.9 1.6 1.3 2.2.9 4.3-2.7.5-.9.4-1.2-.3-.7-.7.4-2.1.9-3.2 1.1-3.4.6-14.3 5.7-17.7 8.2-1.7 1.3-3.5 2.3-3.8 2.3-.7 0-13.8 9.2-16.5 11.6-.8.8-5.3 4.4-10 8.1-4.7 3.6-12.8 10.5-18 15.2-8.2 7.4-44 40.2-47.8 43.8-1.6 1.5-18 1.6-73 .6l-36.1-.6-16.8-15.5c-58.5-53.9-73.7-65.4-99.1-74.9-1.5-.6-1.6-.5-.2 1.3"/><path d="M532.5 906c-7.2 6-17.4 11.6-27.5 15.1-6.9 2.4-7.5 2.9-7.8 5.7-.3 2.4 5.2 29.9 7.4 37.4.5 1.6 2.2 1.8 17.5 1.8H539v-32.5c0-17.9-.1-32.5-.2-32.4-.2 0-3 2.2-6.3 4.9m5.5 58c0 .5-.5 1-1.1 1-.5 0-.7-.5-.4-1 .3-.6.8-1 1.1-1 .2 0 .4.4.4 1m12.1-30.5.1 32.5 13.7-.5c7.5-.3 14.8-.8 16.4-1 1.7-.3 2.7 0 2.7.8.1 3 1.9-2.6 3.9-11.8 1.1-5.5 3.1-14.2 4.3-19.2 2.4-9.9 2.2-10.8-2.3-11.6-7.8-1.4-30-13.7-35.3-19.6-1.1-1.2-2.3-2.1-2.8-2.1s-.8 14.4-.7 32.5m2.9-29.1c0 .3-.4.8-1 1.1-.5.3-1 .1-1-.4 0-.6.5-1.1 1-1.1.6 0 1 .2 1 .4m0 59.6c0 .5-.2 1-.4 1-.3 0-.8-.5-1.1-1-.3-.6-.1-1 .4-1 .6 0 1.1.4 1.1 1"/></g><path fill="#d4d4d4" d="M241.5 57.1c-.4.6-.5 1.2-.2 1.5.2.3.7-.2 1-1.1.7-1.7.1-2-.8-.4M850.7 61c.3 1.1.9 2.2 1.3 2.5.5.3.6-.4.3-1.5s-.9-2.2-1.3-2.5c-.5-.3-.6.4-.3 1.5m-596.7.5c1.4.8 3 1.4 3.5 1.4.6 0-.1-.6-1.5-1.4s-2.9-1.4-3.5-1.4c-.5 0 .1.6 1.5 1.4M284 75c1.9 1.1 4 1.9 4.5 1.9.6 0-.6-.8-2.5-1.9s-3.9-1.9-4.5-1.9c-.5 0 .6.8 2.5 1.9m15 7c.8.5 2 1 2.5 1 .6 0 .3-.5-.5-1s-1.9-1-2.5-1c-.5 0-.3.5.5 1m101.1 136c0 .8.6 2.8 1.4 4.5l1.4 3-.6-3c-.7-3.8-2.2-6.8-2.2-4.5m291 14.2c-1.1 2.9-2.3 7.7-1.5 6 .3-.6 1-1 1.5-.7.5.4.6 0 .3-.8-.2-.7 0-2.6.5-4 .6-1.5.8-2.7.6-2.7-.3 0-.9 1-1.4 2.2m-286 .9c0 1.7 4.7 13.8 4.8 12.5.1-1-3.9-12.8-4.5-13.5-.2-.2-.4.2-.3 1m6.8 20c-.3.8.6 3.4 1.8 5.9 2.3 4.4 2.2 3-.2-3.9-.7-2.1-1.3-2.9-1.6-2m7.2 19.5c-.1 1.5 3 10.6 3.5 10.1.2-.2-.5-2.8-1.5-5.8-1.1-3-2-4.9-2-4.3m6.9 21.9c0 .5.5 1.7 1 2.5s1 1 1 .5c0-.6-.5-1.7-1-2.5s-1-1.1-1-.5m13.1 36.5c0 .8.4 2.2.9 3 1.2 1.8 1.2.2 0-2.5-.6-1.3-.9-1.5-.9-.5m6 18.2c1.9 4.8 4 8.6 2.6 4.7-.3-1-1.1-3.5-1.8-5.8s-1.6-4.1-2-4.1c-.5 0 .1 2.4 1.2 5.2m5 13.5c-.1 1.7 3 9.5 3.6 9 .2-.3-.5-2.6-1.6-5.3s-2-4.3-2-3.7m5.9 16.9c0 1.3 9.8 29.5 10.5 30.2 1 1 .4-.8-4.6-15.5-5.1-14.5-5.9-16.6-5.9-14.7m13.5 39.8c.4 1.6 1.2 4.3 2 6l1.4 3.1-.6-3c-.3-1.7-1.2-4.4-1.9-6l-1.4-3zm2.1 44.1c.4.8.8 1.5 1 1.5s.4-.7.4-1.5-.4-1.5-1-1.5c-.5 0-.7.7-.4 1.5m105.5 119.1c0 1.1.3 1.4.6.6.3-.7.2-1.6-.1-1.9-.3-.4-.6.2-.5 1.3m11.5 2.1c-.6 1.4-.5 1.5.5.6.7-.7 1-1.5.7-1.8s-.9.2-1.2 1.2m-.5 3.9c0 1.1.3 1.4.6.6.3-.7.2-1.6-.1-1.9-.3-.4-.6.2-.5 1.3m92.7.1c.6.2 1.8.2 2.5 0 .6-.3.1-.5-1.3-.5s-1.9.2-1.2.5m-93.7 5.9c0 1.1.3 1.4.6.6.3-.7.2-1.6-.1-1.9-.3-.4-.6.2-.5 1.3m120.4-.7c.6 1 .2 1.2-1.6.6-2.3-.7-2.3-.7-.4.8 2.4 1.9 4.7.4 2.6-1.6-1.1-1-1.2-.9-.6.2m-61.1 1.7c-1.8 1.4-1.8 1.4.6.3 3.1-1.4 3.6-1.9 2.4-1.9-.6 0-1.9.7-3 1.6m-262.4.5c0 .5.5.7 1 .4.6-.3 1-.8 1-1.1 0-.2-.4-.4-1-.4-.5 0-1 .5-1 1.1m199.6 22.4c-.9 2.6-.7 3.2.5 1.2.6-1 .9-2.1.6-2.3-.2-.3-.7.2-1.1 1.1m-12.5 7.1c0 1.1.3 1.4.6.6.3-.7.2-1.6-.1-1.9-.3-.4-.6.2-.5 1.3M402 629c0 .5.5 1 1 1 .6 0 1-.5 1-1 0-.6-.4-1-1-1-.5 0-1 .4-1 1m168.2 3.5c0 1.6.2 2.2.5 1.2.2-.9.2-2.3 0-3-.3-.6-.5.1-.5 1.8m24.6 3.3c-.3 1.2-.2 2 .2 1.7.5-.3 1 0 1.2.7.3.7.7.5 1.1-.6.4-.9.3-1.5-.2-1.1-.5.3-1.1-.3-1.3-1.2-.3-1.5-.5-1.4-1 .5m56.8 3.5c-2.4 5.8-2.9 8-1.7 7.3.6-.4 1.1-1.5 1.1-2.4.1-.9.7-2.8 1.5-4.2 1.1-1.9 1.4-2.1 1.5-.8 0 1 .4 1.8.9 1.8 1.1 0 .2-3.8-1-4.6-.5-.2-1.5 1-2.3 2.9m-70.4-.3c0 1.4.2 1.9.5 1.2.2-.6.2-1.8 0-2.5-.3-.6-.5-.1-.5 1.3m-85.6.2c.3.4.9.8 1.5.8.5 0 .9-.4.9-.8 0-.5-.7-.9-1.5-.9s-1.2.4-.9.9M363 640.4c0 .2.7.7 1.6 1 .8.3 1.2.2.9-.4-.6-1-2.5-1.4-2.5-.6m327.2 2.6c0 1.4.2 1.9.5 1.2.2-.6.2-1.8 0-2.5-.3-.6-.5-.1-.5 1.3m35.2-.9c-.4.7-.3.9.4.5.5-.3 1.3 0 1.5.6.4.9.6 1 .6.1.1-1.7-1.6-2.5-2.5-1.2M580.2 646c0 1.4.2 1.9.5 1.2.2-.6.2-1.8 0-2.5-.3-.6-.5-.1-.5 1.3m96.2 5.3c-1.1 2.3-2.3 3.3-4.1 3.5-3.2.3-10.6 2.2-10.2 2.7.2.1 3.3-.2 6.8-.9 5.8-1.1 6.5-1.4 8.2-4.9 1.1-2 1.7-3.7 1.4-3.7s-1.2 1.5-2.1 3.3m14.7-1.7c0 1.1.3 1.4.6.6.3-.7.2-1.6-.1-1.9-.3-.4-.6.2-.5 1.3M397.5 653c-.3.5-.1 1 .4 1 .6 0 1.1-.5 1.1-1 0-.6-.2-1-.4-1-.3 0-.8.4-1.1 1m313.4.7c-1.3 1.5-1.2 1.5.9.4 2.3-1.2 2.8-2.1 1.3-2.1-.5 0-1.5.7-2.2 1.7m-65.3 4c-.9 2.6-1.2 4.3-.7 3.8 1.1-1.3 3.2-7.7 2.7-8.2-.2-.2-1.1 1.7-2 4.4m-66.5-2.1c0 1.1.3 1.4.6.6.3-.7.2-1.6-.1-1.9-.3-.4-.6.2-.5 1.3m118.4 1.9c6.5 1.8 9.3 1.8 3.5-.1-2.5-.7-5.4-1.3-6.5-1.3s.3.7 3 1.4m9.5-.5c-.8.5-1.2 1.2-.9 1.5.4.3 1.2-.1 1.9-1 1.4-1.7 1.1-1.9-1-.5m-128.5 6.2c-.8 2.8-1.2 10.9-.5 10.1.5-.4 1-3.2 1.2-6.1.3-5.1.1-6.4-.7-4m51.5 12.3c-2.4 2.5-4.2 4.5-3.9 4.5s2.5-2 4.9-4.5 4.2-4.5 3.9-4.5-2.5 2-4.9 4.5m-64.9 6.1c0 1.1.3 1.4.6.6.3-.7.2-1.6-.1-1.9-.3-.4-.6.2-.5 1.3m-.9 9.4c0 1.4.2 1.9.5 1.2.2-.6.2-1.8 0-2.5-.3-.6-.5-.1-.5 1.3m142.9 3.6c0 1.1.3 1.4.6.6.3-.7.2-1.6-.1-1.9-.3-.4-.6.2-.5 1.3m-144 5c0 1.1.3 1.4.6.6.3-.7.2-1.6-.1-1.9-.3-.4-.6.2-.5 1.3m-.9 7.9c0 1.6.2 2.2.5 1.2.2-.9.2-2.3 0-3-.3-.6-.5.1-.5 1.8m214.4 12.2c-.6 1.4-.5 1.5.5.6.7-.7 1-1.5.7-1.8s-.9.2-1.2 1.2m-169.5 2.9c0 1.1.3 1.4.6.6.3-.7.2-1.6-.1-1.9-.3-.4-.6.2-.5 1.3M484.2 725c0 1.9.2 2.7.5 1.7.2-.9.2-2.5 0-3.5-.3-.9-.5-.1-.5 1.8m59.6-.3c2.3.2 5.9.2 8 0 2-.2.1-.4-4.3-.4s-6.1.2-3.7.4m235.2-.1c0 1.4 3.5 10.2 4.4 11.1.4.4-.2-1.9-1.5-5.2-2.2-6.2-2.9-7.5-2.9-5.9m-172.4 3.9c-.3.9-.6 3.5-.6 5.6 0 2.2-.4 3.8-.8 3.5-.5-.3-.9.1-.9.9s.5 1.3 1.1 1.2 1.4-2.9 1.7-6.2c.6-6.5.5-7.5-.5-5m13.7 2.5c0 2.5.2 3.5.4 2.2.2-1.2.2-3.2 0-4.5-.2-1.2-.4-.2-.4 2.3m-309.7 3.7c-.6 1.4-.5 1.5.5.6.7-.7 1-1.5.7-1.8s-.9.2-1.2 1.2m173.4 2.9c0 .8.5 1.2 1 .9.6-.4.8-1.1.5-1.6-.9-1.4-1.5-1.1-1.5.7m289.8-.9c.7.3 1.6.2 1.9-.1.4-.3-.2-.6-1.3-.5-1.1 0-1.4.3-.6.6M620.2 744c0 1.4.2 1.9.5 1.2.2-.6.2-1.8 0-2.5-.3-.6-.5-.1-.5 1.3m44.8 12c-.9.6-1 1-.3 1 .6 0 1.5-.5 1.8-1 .8-1.2.4-1.2-1.5 0m42.4.6c-1.8 1.4-1.8 1.5.4.4 1.2-.6 2.2-1.3 2.2-1.5 0-.8-.5-.6-2.6 1.1m-22.5 5.1c-1.3 1.6-1.2 1.7.4.4.9-.7 1.7-1.5 1.7-1.7 0-.8-.8-.3-2.1 1.3M422.5 772c-.3.5-.1 1 .4 1 .6 0 1.1-.5 1.1-1 0-.6-.2-1-.4-1-.3 0-.8.4-1.1 1m159.8 20.5c0 .8.4 1.2.9.9.4-.3.8-.9.8-1.5 0-.5-.4-.9-.8-.9-.5 0-.9.7-.9 1.5m85.2 3.5c.3.5.8 1 1.1 1 .2 0 .4-.5.4-1 0-.6-.5-1-1.1-1-.5 0-.7.4-.4 1m91.5 2.8c0 .5.7.9 1.5.9s1.2-.4.9-.9c-.3-.4-.9-.8-1.5-.8-.5 0-.9.4-.9.8m7.8 1.9c.7.3 1.6.2 1.9-.1.4-.3-.2-.6-1.3-.5-1.1 0-1.4.3-.6.6m-25.3 7.3c-.3.6.1.7.9.4 1.8-.7 2.1-1.4.7-1.4-.6 0-1.3.4-1.6 1m26.3 3.7c.7.3 1.6.2 1.9-.1.4-.3-.2-.6-1.3-.5-1.1 0-1.4.3-.6.6m4 1c.6.2 1.8.2 2.5 0 .6-.3.1-.5-1.3-.5s-1.9.2-1.2.5M783 815c4.1 1.1 8.6 1.9 10 1.9 1.4-.1-1.1-.9-5.5-1.9-10.5-2.5-14.2-2.4-4.5 0m-111.8 1c0 1.4.2 1.9.5 1.2.2-.6.2-1.8 0-2.5-.3-.6-.5-.1-.5 1.3m48.2 3.6c-1.8 1.4-1.8 1.4.6.3 3.1-1.4 3.6-1.9 2.4-1.9-.6 0-1.9.7-3 1.6m83.4-.9c.7.3 1.6.2 1.9-.1.4-.3-.2-.6-1.3-.5-1.1 0-1.4.3-.6.6m124 0c.7.3 1.6.2 1.9-.1.4-.3-.2-.6-1.3-.5-1.1 0-1.4.3-.6.6m-119.7.7c.7.8 13.9 3.6 16.2 3.5 1.2 0-1.6-.9-6.3-1.9-9-2-10.6-2.3-9.9-1.6m115.7.3c.7.3 1.6.2 1.9-.1.4-.3-.2-.6-1.3-.5-1.1 0-1.4.3-.6.6m-6.8 1c-1.4.3-2.9.8-3.4 1.3-.4.5 1.1.4 3.5-.1 6.7-1.5 6.6-2.4-.1-1.2m27 .8c1.4.8 3.2 1.4 4 1.4s0-.6-1.9-1.4c-4.2-1.9-5.4-1.9-2.1 0m-169.5 1.3c1 1 11.7 3.3 12.4 2.7.1-.2-1.4-.8-3.5-1.3-8.2-2.1-9.9-2.3-8.9-1.4m134.5.7c0 .8.2 1.5.4 1.5s.6-.7 1-1.5c.3-.8.1-1.5-.4-1.5-.6 0-1 .7-1 1.5m-80.2.2c.7.3 1.6.2 1.9-.1.4-.3-.2-.6-1.3-.5-1.1 0-1.4.3-.6.6m76 0c.7.3 1.6.2 1.9-.1.4-.3-.2-.6-1.3-.5-1.1 0-1.4.3-.6.6m-72 1c.7.3 1.6.2 1.9-.1.4-.3-.2-.6-1.3-.5-1.1 0-1.4.3-.6.6m-125.4 1.9c-1.8 1.4-1.8 1.5.4.4 1.2-.6 2.2-1.3 2.2-1.5 0-.8-.5-.6-2.6 1.1m129.4-.9c.6.2 1.8.2 2.5 0 .6-.3.1-.5-1.3-.5s-1.9.2-1.2.5m58.2-.3c0 .2 1.1.6 2.5.8 1.3.3 2.2.1 1.9-.3-.5-.9-4.4-1.3-4.4-.5m-52 1.6c3.4 1.1 6 1.1 3.5 0-1.1-.5-2.9-.8-4-.8-1.6 0-1.5.2.5.8m46.5 0c-1.3.5-1.4.9-.5.9.8 0 2.4-.4 3.5-.9 1.3-.5 1.4-.9.5-.9-.8 0-2.4.4-3.5.9m70.5-.2c.8.5 2.6 1.3 4 1.6 1.7.5 2 .4 1-.2-.8-.5-2.6-1.3-4-1.6-1.7-.5-2-.4-1 .2m-164.2.9c.7.3 1.6.2 1.9-.1.4-.3-.2-.6-1.3-.5-1.1 0-1.4.3-.6.6m89.2.3c-.9.6-1 1-.3 1 .6 0 1.5-.5 1.8-1 .8-1.2.4-1.2-1.5 0m37 2.1c-13.7 3.3-12.7 3.8 1.4.8 10.5-2.3 10.9-2.2 22.6 1.9.8.3 1.2.2.9-.1-.3-.4-3.4-1.7-7-3l-6.4-2.3zm-763.2-1.4c.7.3 1.6.2 1.9-.1.4-.3-.2-.6-1.3-.5-1.1 0-1.4.3-.6.6m642 0c.7.3 1.6.2 1.9-.1.4-.3-.2-.6-1.3-.5-1.1 0-1.4.3-.6.6m3.9.4c.7.7 1.5 1 1.8.7s-.2-.9-1.2-1.2c-1.4-.6-1.5-.5-.6.5m76.3 0c0 .5.5.7 1 .4.6-.3 1-.8 1-1.1 0-.2-.4-.4-1-.4-.5 0-1 .5-1 1.1m-183.2 2.3c-5.4 3.2-6 4.2-1.1 1.7 2.3-1.1 4.4-2.5 4.8-3.1.8-1.3.7-1.3-3.7 1.4m111.9-1.4c1 .9 13.2 3.4 13.8 2.8.2-.2-3-1.1-7.1-2-4.2-.8-7.2-1.2-6.7-.8m52.1.7c.7.3 1.6.2 1.9-.1.4-.3-.2-.6-1.3-.5-1.1 0-1.4.3-.6.6m11 0c.7.3 1.6.2 1.9-.1.4-.3-.2-.6-1.3-.5-1.1 0-1.4.3-.6.6m-689 3c.7.3 1.6.2 1.9-.1.4-.3-.2-.6-1.3-.5-1.1 0-1.4.3-.6.6m722 0c.7.3 1.6.2 1.9-.1.4-.3-.2-.6-1.3-.5-1.1 0-1.4.3-.6.6m43.2.3c.8.5 2 1 2.5 1 .6 0 .3-.5-.5-1s-1.9-1-2.5-1c-.5 0-.3.5.5 1m-107.5 3.1c7.2 1.6 13.7 2.7 14.5 2.6 1.9-.3-22.9-5.8-25.5-5.6-1.1 0 3.9 1.4 11 3m52.3-1.2c-3.6.9-6.9 1.9-7.3 2.2-.7.7 10.1-1.4 15-3 5-1.6-.4-1-7.7.8m62.2.6c4.6 1.8 6.4 1.7 2.5 0-1.6-.8-3.7-1.4-4.5-1.4s.1.7 2 1.4m-760-.1c0 .2 1.3.6 2.9.8 1.7.2 2.8.1 2.5-.4-.5-.8-5.4-1.2-5.4-.4m8.8 1.8c.6.6 1.8.8 2.8.6 1.4-.3 1.2-.5-.9-1-1.9-.3-2.5-.2-1.9.4m33.7.8c-1.3.6-1.5.9-.5.9.8 0 2.2-.4 3-.9 1.8-1.2.2-1.2-2.5 0m724.5-.2c.8.5 2.6 1.3 4 1.6 1.7.5 2 .4 1-.2-.8-.5-2.6-1.3-4-1.6-1.7-.5-2-.4-1 .2m-104.2 1.9c.7.3 1.6.2 1.9-.1.4-.3-.2-.6-1.3-.5-1.1 0-1.4.3-.6.6m4.2.3c0 .6.7 1 1.5 1s1.5-.2 1.5-.4-.7-.6-1.5-1c-.8-.3-1.5-.1-1.5.4m12.8-.3c.7.3 1.6.2 1.9-.1.4-.3-.2-.6-1.3-.5-1.1 0-1.4.3-.6.6m-134.2 1.2c-.4.5.3.7 1.4.4 2.3-.6 2.6-1.3.6-1.3-.8 0-1.7.4-2 .9m235.4 2c9.4 3.5 12.7 4.5 11.8 3.6-.8-.8-16.9-6.5-18.3-6.4-.5 0 2.4 1.3 6.5 2.8m-242 .6c-1.4.8-2 1.4-1.4 1.5.5 0 1.9-.7 3-1.5 2.4-1.8 1.6-1.9-1.6 0m-59.5.5c.3.5.8 1 1.1 1 .2 0 .4-.5.4-1 0-.6-.5-1-1.1-1-.5 0-.7.4-.4 1m49.2 3.4c-5.3 2.2-7.9 3.6-6.5 3.6.7 0 13.2-5.1 13.7-5.6 1-1-1.9-.2-7.2 2m-20.2 8c-6.6 3.2-5.4 3.2 2.1.1 3.2-1.3 5.2-2.4 4.4-2.4-.8-.1-3.7 1-6.5 2.3M733 858c-.8.5-1 1-.5 1 .6 0 1.7-.5 2.5-1s1.1-1 .5-1c-.5 0-1.7.5-2.5 1m-45.2 4.7c.7.3 1.6.2 1.9-.1.4-.3-.2-.6-1.3-.5-1.1 0-1.4.3-.6.6m76.9 2.4c.7.7 1.5 1 1.8.7s-.2-.9-1.2-1.2c-1.4-.6-1.5-.5-.6.5m-20.7.3c0 .2.7.7 1.6 1 .8.3 1.2.2.9-.4-.6-1-2.5-1.4-2.5-.6m-12.5 3.7c-5.4 2.2-7.5 3.6-3.5 2.4 3.7-1.2 10.7-4.4 9.5-4.4-.5 0-3.2.9-6 2m-56.4 4.6c0 1.2-.4 3-.7 4-.5 1.7-.5 1.7.6 0 .6-1 .9-2.8.7-4-.4-2.2-.4-2.2-.6 0m42.4.9c-2.7 1.3-3.9 2.1-2.5 1.8 3.8-1 10.7-4.3 9-4.2-.8 0-3.7 1.1-6.5 2.4m43.5-.2c0 .3.9 1 2 1.6s2 .8 2 .6c0-.3-.9-1-2-1.6s-2-.8-2-.6m-74.3 2.7c.4 1.3.8 1.8 1.1 1 .2-.7-.1-1.8-.6-2.3-.8-.8-.9-.4-.5 1.3m12.7 4.4c-1.7 1.3-1.6 1.4 1.4.4 3.3-1.1 4.1-1.9 1.9-1.9-.7 0-2.2.7-3.3 1.5M685 884c0 1.1.4 2 .9 2s.7-.9.4-2-.7-2-.9-2-.4.9-.4 2m-10.8 1c0 1.4.2 1.9.5 1.2.2-.6.2-1.8 0-2.5-.3-.6-.5-.1-.5 1.3m42.4 4.2c.3.5 1 .6 1.5.3 1.3-.9 1.1-1.2-.6-1.2-.8 0-1.2.4-.9.9m-4.3 4c.1 1.5.6 2.3 1.1 1.8.4-.4.4-1.6-.2-2.6-.9-1.6-1-1.4-.9.8M551 905.1c0 .5.5.7 1 .4.6-.3 1-.8 1-1.1 0-.2-.4-.4-1-.4-.5 0-1 .5-1 1.1m328 26.3c0 .2.7.7 1.6 1 .8.3 1.2.2.9-.4-.6-1-2.5-1.4-2.5-.6m9 5c0 .2.7.7 1.6 1 .8.3 1.2.2.9-.4-.6-1-2.5-1.4-2.5-.6m74.8 3.3c.7.3 1.6.2 1.9-.1.4-.3-.2-.6-1.3-.5-1.1 0-1.4.3-.6.6m-10 1c1.2.2 3 .2 4 0 .9-.3-.1-.5-2.3-.4-2.2 0-3 .2-1.7.4m-55.8.7c0 .7 7.1 4.9 7.5 4.4.3-.2-1.3-1.5-3.5-2.7s-4-2-4-1.7m45.3.3c1.5.2 3.9.2 5.5 0 1.5-.2.2-.4-2.8-.4s-4.3.2-2.7.4m28.8.9c0 1.1.3 1.4.6.6.3-.7.2-1.6-.1-1.9-.3-.4-.6.2-.5 1.3m-40.3.1c.7.3 1.6.2 1.9-.1.4-.3-.2-.6-1.3-.5-1.1 0-1.4.3-.6.6m4.5 0c.9.2 2.3.2 3 0 .6-.3-.1-.5-1.8-.5-1.6 0-2.2.2-1.2.5m-21.6 1.4c-3.8.4-7.2 1-7.5 1.4-.6.5 3.3.2 16.8-1.4 5.3-.7 5.7-.8 2-.8-2.5 0-7.6.3-11.3.8M119 947c0 .5.5 1 1.1 1 .5 0 .7-.5.4-1-.3-.6-.8-1-1.1-1-.2 0-.4.4-.4 1m850.8.7c.7.3 1.6.2 1.9-.1.4-.3-.2-.6-1.3-.5-1.1 0-1.4.3-.6.6m-18 2c.7.3 1.6.2 1.9-.1.4-.3-.2-.6-1.3-.5-1.1 0-1.4.3-.6.6m14 0c1.2.2 3 .2 4 0 .9-.3-.1-.5-2.3-.4-2.2 0-3 .2-1.7.4m-8.5 1c.9.2 2.3.2 3 0 .6-.3-.1-.5-1.8-.5-1.6 0-2.2.2-1.2.5m-407.1 2.8c0 1.6.2 2.2.5 1.2.2-.9.2-2.3 0-3-.3-.6-.5.1-.5 1.8m397.1-1.8c.9.2 2.5.2 3.5 0 .9-.3.1-.5-1.8-.5s-2.7.2-1.7.5m-8.5 1c.6.2 1.8.2 2.5 0 .6-.3.1-.5-1.3-.5s-1.9.2-1.2.5m-33 3c.6.2 1.8.2 2.5 0 .6-.3.1-.5-1.3-.5s-1.9.2-1.2.5M573 965l-8.5.6 9.3.2c5.6.1 9.2-.2 9.2-.8s-.3-.9-.7-.8c-.5.1-4.6.5-9.3.8m-11.2.7c.7.3 1.6.2 1.9-.1.4-.3-.2-.6-1.3-.5-1.1 0-1.4.3-.6.6m-8 14c8.3.2 22.1.2 30.5 0 8.3-.1 1.5-.3-15.3-.3s-23.6.2-15.2.3m43 30c.7.3 1.6.2 1.9-.1.4-.3-.2-.6-1.3-.5-1.1 0-1.4.3-.6.6"/><path fill="#ffffd4" d="M576.1 687.6c0 1.1.3 1.4.6.6.3-.7.2-1.6-.1-1.9-.3-.4-.6.2-.5 1.3"/><path fill="#aaa" d="M594.5 638c-.3.5-.1 1 .4 1 .6 0 1.1-.5 1.1-1 0-.6-.2-1-.4-1-.3 0-.8.4-1.1 1m132.5 3c0 .5.5 1 1 1 .6 0 1-.5 1-1 0-.6-.4-1-1-1-.5 0-1 .4-1 1m138.8 190.7c.7.3 1.6.2 1.9-.1.4-.3-.2-.6-1.3-.5-1.1 0-1.4.3-.6.6m42 2c.7.3 1.6.2 1.9-.1.4-.3-.2-.6-1.3-.5-1.1 0-1.4.3-.6.6m-4 1c.7.3 1.6.2 1.9-.1.4-.3-.2-.6-1.3-.5-1.1 0-1.4.3-.6.6"/><path fill="#ffd4d4" d="M550.1 876.6c0 1.1.3 1.4.6.6.3-.7.2-1.6-.1-1.9-.3-.4-.6.2-.5 1.3"/></svg>